<svg class="ml-auto" width="444px" height="267px" viewBox="0 0 444 267" version="1.1" xmlns="http://www.w3.org/2000/svg" xmlns:xlink="http://www.w3.org/1999/xlink">
  <defs>
      <linearGradient x1="50.0228196%" y1="100.006339%" x2="50.0228196%" y2="-0.00916024026%" id="linearGradient-1">
          <stop stop-color="#808080" stop-opacity="0.25" offset="0%"></stop>
          <stop stop-color="#808080" stop-opacity="0.12" offset="54%"></stop>
          <stop stop-color="#808080" stop-opacity="0.1" offset="100%"></stop>
      </linearGradient>
  </defs>
  <g id="Page-1" stroke="none" stroke-width="1" fill="none" fill-rule="evenodd">
      <g id="Desktop-HD" transform="translate(-775.000000, -178.000000)">
          <g id="Hero" transform="translate(-2.000000, 0.000000)">
              <g id="Group-5" transform="translate(777.000000, 178.000000)">
                  <g id="undraw_version_control_9bpv-(1)">
                      <path d="M193.696403,248.65036 C193.264748,247.08777 192.833094,245.507914 191.969784,244.148201 C191.169281,242.995313 190.218434,241.954463 189.142446,241.053237 C186.01295,238.21295 182.171223,235.329496 178.023022,236.046043 C176.740055,236.329837 175.500447,236.782714 174.336691,237.392806 C173.732374,237.673381 173.123741,237.953957 172.502158,238.191367 C170.752411,238.922846 168.818426,239.091806 166.968345,238.67482 C166.018705,238.420144 165.133813,237.96259 164.197122,237.677698 C163.752357,237.544067 163.297694,237.445918 162.83741,237.384173 C163.742434,236.979067 164.620501,236.516243 165.466187,235.998561 C170.119424,233.14964 173.831655,228 173.313669,222.492086 C173.136691,220.640288 172.502158,218.866187 171.871942,217.117986 L170.214388,212.533813 C169.497842,210.548201 168.755396,208.523741 167.447482,206.87482 C165.992806,205.035971 163.920863,203.788489 161.779856,202.860432 C157.182734,200.861871 152.158273,200.158273 147.198561,199.476259 L146.853237,199.428777 L146.853237,145.847482 C146.853237,143.940312 145.30717,142.394245 143.4,142.394245 L136.882014,142.394245 C136.594245,140.633094 136.306475,138.87482 136.018705,137.119424 C135.198561,132.107914 134.348201,127.005755 132.038849,122.494964 C130.528058,119.542446 128.123741,116.723741 124.882014,116.145324 C124.244943,116.087852 123.618874,115.942592 123.021583,115.713669 C122.071942,115.247482 121.553957,114.211511 120.82446,113.447482 C118.942446,111.47482 115.882014,111.444604 113.361151,110.425899 C111.133813,109.541007 109.31223,107.87482 107.283453,106.592806 C105.254676,105.310791 102.733813,104.4 100.489209,105.233094 C100.489209,105.397122 100.458993,105.561151 100.441727,105.720863 L99,105.056115 C97.4460432,104.335252 95.8618705,103.597122 94.6143885,102.414388 C93.0129496,100.903597 92.1582734,98.9007194 91.4935252,96.7726619 C91.4244604,96.552518 91.3597122,96.3410072 91.2906475,96.1035971 C94.0497393,93.2887156 95.9175536,89.7227517 96.6604317,85.8517986 L97.0100719,86.9870504 C97.0887841,87.2421285 97.1810006,87.492842 97.2863309,87.7381295 C97.4648149,88.212496 97.762069,88.6331106 98.1496403,88.9597122 C98.2602289,89.0465148 98.3822367,89.117686 98.5122302,89.171223 C98.6314392,89.218505 98.7561833,89.2504163 98.8834532,89.2661871 C99.0626945,89.2883545 99.2445433,89.2751558 99.418705,89.2273381 C100.009928,89.0442855 100.486205,88.6029355 100.713669,88.0273381 C100.782506,87.8576337 100.833149,87.6811067 100.864748,87.5007194 C100.88143,87.3920768 100.891521,87.2825239 100.894964,87.1726619 C100.894964,87.1381295 100.894964,87.1035971 100.894964,87.0690647 C100.894964,87.0345324 100.894964,86.9179856 100.894964,86.8446043 C100.894964,86.771223 100.894964,86.7669065 100.894964,86.723741 C100.894964,86.6805755 100.894964,86.581295 100.873381,86.5079137 L100.873381,86.3956835 C100.873381,86.3093525 100.847482,86.2230216 100.830216,86.1410072 C100.81295,86.0589928 100.830216,86.0935252 100.830216,86.0719424 C100.808633,85.9640288 100.782734,85.8517986 100.761151,85.7438849 C100.761151,85.7179856 100.761151,85.6877698 100.761151,85.6618705 C100.761151,85.6359712 100.722302,85.4848921 100.700719,85.3942446 C100.679137,85.3035971 100.670504,85.2776978 100.657554,85.2172662 L100.657554,85.1913669 C100.614388,85.018705 100.57554,84.8503597 100.536691,84.6776978 C100.222963,83.1796078 100.14288,81.6420004 100.299281,80.1194245 C100.557633,77.8849848 100.970127,75.6710753 101.533813,73.4935252 L101.62446,73.1007194 C101.658993,72.9496403 101.693525,72.7985612 101.723741,72.6431655 C101.792806,72.3323741 101.861871,72.0215827 101.926619,71.7064748 L102.082014,70.9122302 L102.198561,70.2043165 L102.198561,70.1136691 C102.440883,68.509542 102.491599,66.8822908 102.34964,65.2661871 C102.151079,63.0086331 101.451799,60.8719424 99.9194245,59.171223 C98.8359712,57.9669065 97.4071942,57.0776978 96.4014388,55.8129496 C95.4604317,54.6302158 94.9294964,53.171223 93.9539568,52.0100719 C91.2604317,48.7942446 84.3453237,46.3165468 80.1021583,45.8848921 C75.2417266,45.3928058 67.3899281,46.6359712 63.4705036,49.5064748 C62.0201439,50.5640288 61.0273381,52.0964029 60.0172662,53.5467626 C58.1611511,56.2446043 56.0546763,58.9381295 53.0805755,60.4532374 C51.9582734,61.0230216 50.6719424,61.4546763 49.9251799,62.447482 C49.4809137,63.1204761 49.1932764,63.8845588 49.0834532,64.6834532 C48.5115703,67.4940337 48.2137719,70.3534769 48.1942446,73.2215827 C48.1942446,73.5798561 48.1942446,73.9381295 48.1942446,74.3007194 C48.203094,75.3760914 48.4322706,76.438237 48.8676259,77.4215827 C48.9366906,77.5683453 49.0143885,77.7107914 49.0964029,77.8532374 L49.1482014,77.9438849 C49.6702953,78.6901834 50.1321843,79.476838 50.5294964,80.2964029 C50.6284774,80.5259064 50.6994912,80.7664835 50.7410072,81.0129496 C50.8149607,81.6453001 50.7740148,82.2858108 50.6201439,82.9035971 C50.6201439,82.9985612 50.581295,83.0935252 50.5640288,83.1884892 L50.5251799,83.3741007 C50.5251799,83.4388489 50.5251799,83.5035971 50.4906475,83.5640288 C50.4561151,83.7496403 50.4258993,83.9352518 50.4,84.1165468 C50.3345598,84.6158381 50.3668128,85.1230899 50.494964,85.6100719 C50.6145184,86.1588962 50.9633347,86.6302695 51.4532374,86.905036 C51.6991081,87.0229389 51.9608529,87.1043706 52.2302158,87.1467626 C52.5021583,87.1942446 52.7784173,87.2244604 53.0460432,87.2848921 C53.3901948,87.3633471 53.7225387,87.4867062 54.0345324,87.6517986 C54.3334298,87.7948386 54.6132933,87.9746473 54.8676259,88.1870504 C54.9934564,88.3014115 55.1130532,88.4224492 55.2258993,88.5496403 C55.4538497,88.8106849 55.6589222,89.0908544 55.8388489,89.3870504 C55.9309353,89.5395683 56.0172662,89.694964 56.0978417,89.8532374 C56.4071455,90.4778728 56.6543746,91.1313672 56.8359712,91.8043165 C56.9482014,92.2057554 57.0431655,92.6115108 57.1251799,93.0172662 C57.1640288,93.1985612 57.1985612,93.3798561 57.228777,93.5568345 C57.2589928,93.7338129 57.2892086,93.9151079 57.3151079,94.0920863 C57.4328879,94.0853948 57.549138,94.0621447 57.6604317,94.0230216 C58.294964,93.7942446 58.6489209,93.0561151 58.847482,92.3395683 C58.8820144,92.218705 58.9122302,92.1021583 58.9381295,91.9856115 C59.0374101,91.5539568 59.1410072,91.0791367 59.2402878,90.6258993 C60.9417781,94.2391487 63.6852921,97.2607724 67.1179856,99.3021583 C67.2388489,99.6604317 67.3553957,100.014388 67.4589928,100.376978 C68.0244604,102.332374 68.2964029,104.378417 67.3165468,106.08777 C66.6172662,107.300719 65.4431655,108.047482 64.1309353,108.565468 C63.9417409,108.313267 63.6983477,108.106752 63.418705,107.961151 C62.2834532,107.391367 60.9194245,108.082014 59.9654676,108.932374 C58.2388489,110.494964 56.8316547,112.735252 54.5611511,113.248921 C53.7410072,113.438849 52.8345324,113.4 52.152518,113.900719 C51.701437,114.324896 51.3236705,114.820806 51.0345324,115.368345 C50.0333787,116.806095 48.3694474,117.635621 46.618705,117.569784 C45.828777,117.530935 44.8920863,117.34964 44.352518,117.928058 C43.9510791,118.359712 43.9208633,119.041727 43.4892086,119.451799 C42.9107914,120.021583 41.9611511,119.745324 41.1539568,119.710791 C39.6172662,119.646043 38.1884892,120.638849 37.3122302,121.91223 C36.4359712,123.185612 36.0172662,124.709353 35.5856115,126.228777 L35.5856115,126.254676 C35.4748466,126.335353 35.3695777,126.423318 35.2705036,126.517986 C34.8519923,126.963822 34.5275567,127.489378 34.3165468,128.063309 C30.8257249,136.011148 28.7653333,144.512821 28.2302158,153.176978 C28.2387462,153.599188 28.1439056,154.01708 27.9539568,154.394245 C27.7608311,154.640699 27.5486695,154.871623 27.3194245,155.084892 C26.9050238,155.592212 26.7138307,156.245775 26.7894718,156.896451 C26.8651129,157.547128 27.2011346,158.139402 27.7208633,158.538129 C27.8450696,158.313006 28.0005747,158.106635 28.1827338,157.92518 C28.1352518,158.123741 28.0920863,158.317986 28.0618705,158.494964 C27.8885041,159.754277 27.8725541,161.030272 28.0143885,162.293525 C28.4230216,168.290647 28.8359712,174.283453 29.2532374,180.271942 C29.3697842,181.968345 29.4863309,183.660432 29.6417266,185.352518 C29.9438849,188.627338 30.3755396,191.889209 30.9366906,195.138129 C30.9625899,195.284892 30.9928058,195.435971 31.0316547,195.569784 C27.5136691,196.68777 24.3841727,198.707914 23.0676259,202.079137 C22.6100719,203.244604 22.4028777,204.513669 21.8417266,205.631655 C21.2244604,206.857554 20.2100719,207.83741 19.5366906,209.03741 C18.3755396,211.100719 18.323741,213.630216 18.7467626,215.943885 C19.5625899,220.454676 22.0014388,224.486331 25.2215827,227.766906 C25.0791367,227.766906 24.9323741,227.766906 24.7899281,227.766906 C23.7378775,227.88343 22.7279661,228.245697 21.8417266,228.82446 C15.0302158,232.804317 11.1366906,241.342446 12.5568345,249.138129 C12.8374101,250.661871 13.3251799,252.207194 14.3438849,253.368345 C15.1906425,254.291409 16.2793758,254.958407 17.4863309,255.293525 C18.2411425,255.520675 19.0183365,255.665404 19.8043165,255.72518 C25.1136691,256.156835 30.2546763,253.696403 35.5769784,253.489209 C37.3400988,253.461114 39.1032509,253.543288 40.8561151,253.735252 C43.4201439,253.948201 45.9884892,254.083453 48.5611511,254.141007 C52.7438849,254.240288 55.0964029,253.126619 57.7640288,250.001439 C58.4197077,249.224124 58.9671257,248.361614 59.3913669,247.43741 C61.6618705,247.307914 64.1697842,247.109353 65.9827338,246.96259 L66.0086331,247.21295 C66.1079137,248.076259 66.2589928,249.069065 66.9496403,249.61295 C67.3381432,249.880898 67.7798215,250.061986 68.2446043,250.143885 C72.6043165,251.214388 77.0158273,252.302158 81.505036,252.302158 C83.6117413,252.259643 85.7143668,252.098235 87.8028777,251.818705 L95.6892086,250.907914 C97.9873119,251.199208 100.255143,251.69322 102.466187,252.384173 C104.745324,253.156835 106.873381,254.305036 109.100719,255.215827 C114.280576,257.313669 119.848921,258.064748 125.365468,258.798561 C126.306475,258.923741 127.385612,259.010072 128.080576,258.366906 C128.978417,257.503597 128.680576,256.061871 128.425899,254.853237 C128.322302,254.356835 128.244604,253.860432 128.184173,253.359712 C131.906753,254.341081 135.548989,255.605185 139.079137,257.141007 L139.696403,257.41295 C139.877698,258.353957 140.745324,259.105036 141.578417,260.119424 C141.851934,260.547556 142.171855,260.9442 142.532374,261.302158 C142.944382,261.569628 143.41273,261.738056 143.900719,261.794245 C149.724307,262.879264 155.67062,263.148033 161.568345,262.592806 C162.775409,262.428375 163.996007,262.386435 165.211511,262.467626 C166.104476,262.589245 166.985391,262.78709 167.844604,263.058993 L172.838849,264.492086 C176.520863,265.545324 180.289209,266.611511 184.109353,266.374101 C184.883955,266.325418 185.653362,266.214265 186.410072,266.041727 C189.431655,265.342446 192.246043,263.654676 193.696403,260.939568 C195.746763,257.248921 194.801439,252.707914 193.696403,248.65036 Z" id="Path" fill="url(#linearGradient-1)"></path>
                      <path d="M53.9654676,247.808633 C53.0546763,245.736691 52.1913669,243.353957 53.1021583,241.282014 C53.6966729,240.061808 54.7179663,239.101946 55.9726619,238.584173 C57.2142514,238.077885 58.5229431,237.755074 59.857554,237.625899 C64.0465205,237.076467 68.2853494,237.01852 72.4877698,237.453237 C72.7942446,239.879137 72.1467626,242.339568 71.5899281,244.683453 C71.0848921,246.841727 70.7956835,247.161151 68.5683453,247.273381 C67.1266187,247.351079 54.3064748,248.572662 53.9654676,247.808633 Z" id="Path" fill="#FBBEBE"></path>
                      <ellipse id="Oval" fill="#464353" cx="92.4043165" cy="216.565468" rx="61.7266187" ry="17.2661871"></ellipse>
                      <ellipse id="Oval" fill="#000000" opacity="0.1" cx="92.4043165" cy="216.565468" rx="61.7266187" ry="17.2661871"></ellipse>
                      <path d="M103.471942,125.417266 C101.356102,129.505744 97.842007,132.698148 93.5697842,134.41295 C91.0474907,135.332022 88.3929597,135.836398 85.7093525,135.906475 C82.7784173,136.040288 79.7870504,135.85036 77.0330935,134.848921 C73.3381295,133.510791 70.2690647,130.774101 67.9683453,127.584173 C65.6676259,124.394245 64.0834532,120.751079 62.7064748,117.077698 C61.981295,115.165468 61.2906475,113.128058 61.6316547,111.107914 C63.8546763,110.602878 66.2892086,109.860432 67.4374101,107.88777 C68.4172662,106.195683 68.1453237,104.166906 67.5798561,102.233094 C67.4201439,101.684892 67.2345324,101.141007 67.0489209,100.618705 C66.6172662,99.3669065 65.1280576,96.9884892 66.1856115,95.9179856 C66.8460432,95.2402878 69.6129496,94.894964 70.5669065,94.4546763 C73.5064748,93.0992806 76.2172662,91.1395683 79.4460432,90.4964029 C82.2388489,89.9395683 85.1223022,90.4618705 87.9107914,91.0402878 C88.2806706,91.0940804 88.635932,91.2217984 88.9553957,91.4158273 C89.319644,91.7227979 89.5891122,92.1270002 89.7323741,92.581295 C90.5266187,94.5151079 90.9928058,96.6517986 91.6316547,98.6676259 C92.2964029,100.778417 93.1510791,102.759712 94.752518,104.257554 C96,105.427338 97.5884892,106.161151 99.142446,106.873381 L102.966906,108.625899 C103.647197,108.880621 104.264227,109.279702 104.77554,109.795683 C105.27567,110.483123 105.574595,111.296197 105.638849,112.143885 C106.324105,116.686093 105.566171,121.328815 103.471942,125.417266 Z" id="Path" fill="#FBBEBE"></path>
                      <path d="M91.6143885,98.6676259 C85.3505786,105.189109 75.4716837,106.654884 67.5841727,102.233094 C67.4244604,101.684892 67.2388489,101.141007 67.0532374,100.618705 C66.6215827,99.3669065 65.1323741,96.9884892 66.1899281,95.9179856 C66.8503597,95.2402878 69.6172662,94.894964 70.571223,94.4546763 C73.5107914,93.0992806 76.2215827,91.1395683 79.4503597,90.4964029 C82.2431655,89.9395683 85.1266187,90.4618705 87.9151079,91.0402878 C88.2849872,91.0940804 88.6402485,91.2217984 88.9597122,91.4158273 C89.3239605,91.7227979 89.5934287,92.1270002 89.7366906,92.581295 C90.5093525,94.5151079 90.9755396,96.6517986 91.6143885,98.6676259 Z" id="Path" fill="#000000" opacity="0.1"></path>
                      <circle id="Oval" fill="#FBBEBE" cx="77.2964029" cy="84.047482" r="19.8561151"></circle>
                      <path d="M137.792806,148.489209 L136.161151,138.604317 C135.336691,133.644604 134.486331,128.589928 132.181295,124.122302 C130.666187,121.195683 128.261871,118.407194 125.020144,117.828777 C124.381583,117.771863 123.754013,117.626592 123.155396,117.397122 C122.205755,116.939568 121.68777,115.91223 120.958273,115.152518 C119.076259,113.201439 116.011511,113.171223 113.490647,112.178417 C111.263309,111.315108 109.441727,109.653237 107.41295,108.384173 C105.384173,107.115108 102.858993,106.225899 100.614388,107.03741 C100.251799,110.900719 99.8676259,114.85036 98.2273381,118.368345 C96.0650926,123.006763 91.9234981,126.420412 86.9575772,127.657284 C81.9916563,128.894155 76.7327504,127.821906 72.647482,124.739568 C68.8014388,121.843165 66.3366906,117.37554 65.1884892,112.700719 C64.9079137,111.561151 64.5884892,110.253237 63.5395683,109.730935 C62.4043165,109.161151 61.0402878,109.851799 60.0863309,110.689209 C58.3597122,112.238849 56.9482014,114.457554 54.6776978,114.979856 C53.857554,115.169784 52.9510791,115.130935 52.2690647,115.627338 C51.8157937,116.045641 51.4363653,116.537439 51.1467626,117.082014 C50.1374104,118.508244 48.4770494,119.329498 46.7309353,119.266187 C45.9410072,119.227338 45.0043165,119.046043 44.4647482,119.620144 C44.0633094,120.051799 44.0330935,120.72518 43.6014388,121.126619 C43.018705,121.692086 42.0733813,121.415827 41.2618705,121.385612 C39.7251799,121.320863 38.2964029,122.305036 37.4158273,123.543885 C36.5352518,124.782734 36.1208633,126.315108 35.6892086,127.8 C40.4071942,138.306475 44.723741,148.825899 49.4417266,159.332374 C49.6627693,159.72837 49.7800752,160.173835 49.7827338,160.627338 C49.6881165,161.098033 49.4873365,161.54093 49.1956835,161.922302 C46.8820144,165.638849 46.9553957,170.313669 47.2100719,174.682014 C47.4647482,179.05036 47.7755396,183.664748 45.8244604,187.579856 C45.2935252,188.654676 44.6028777,189.638849 44.0978417,190.713669 C42.9151079,193.148201 42.4877698,200.935252 43.1784173,203.551079 L140.766906,203.551079 C138.906475,198.435971 139.614388,188.171223 140.002878,182.741007 C140.27482,178.942446 139.571223,175.148201 139.269065,171.34964 C138.608633,163.592806 139.07482,156.233094 137.792806,148.489209 Z" id="Path" fill="#00B3FF"></path>
                      <path d="M28.2129496,159.798561 C28.0402562,161.047727 28.0228577,162.313466 28.1611511,163.566906 L29.4,181.381295 C29.5165468,183.060432 29.6330935,184.735252 29.7884892,186.410072 C30.0863309,189.660432 30.5309353,192.884892 31.0834532,196.105036 C31.1093368,197.05705 31.9011786,197.808334 32.8532374,197.784173 C38.3136691,198.941007 43.9553957,198.893525 49.5280576,198.578417 C58.0316547,198.103597 66.5223022,197.020144 75.0388489,197.205755 C77.2316547,197.253237 79.7870504,197.205755 81.1165468,195.479137 C82.4460432,193.752518 81.6733813,190.959712 79.9381295,189.565468 C78.2028777,188.171223 75.8460432,187.838849 73.618705,187.838849 C70.6705036,187.808633 67.7223022,188.227338 64.7827338,188.054676 C62.0848921,187.894964 59.447482,187.243165 56.8316547,186.591367 L49.4935252,184.765468 C49.7741007,182.542446 50.6201439,180.448921 51.4230216,178.338129 C52.8647482,174.595683 54.2115108,170.728058 54.2374101,166.717986 C54.2633094,162.707914 52.752518,158.490647 49.4676259,156.194245 C46.7654676,154.307914 43.2863309,153.958273 39.9928058,154.035971 C37.5971223,154.105036 33.457554,153.530935 31.2690647,154.467626 C29.5381295,155.227338 28.5366906,158.102158 28.2129496,159.798561 Z" id="Path" fill="#FBBEBE"></path>
                      <path d="M142.78705,200.529496 C144.22446,199.981295 145.808633,200.179856 147.34964,200.38705 C152.309353,201.064748 157.342446,201.759712 161.939568,203.741007 C164.097842,204.664748 166.152518,205.899281 167.611511,207.716547 C168.906475,209.352518 169.661871,211.355396 170.378417,213.328058 L172.035971,217.869065 C172.666187,219.595683 173.305036,221.356835 173.482014,223.191367 C174,228.625899 170.283453,233.74964 165.608633,236.572662 C160.933813,239.395683 155.430216,240.401439 150.069065,241.454676 C144.707914,242.507914 139.32518,243.673381 133.985612,244.907914 C131.495139,245.554223 128.968356,246.051508 126.418705,246.397122 C120.703597,247.044604 114.729496,246.090647 109.299281,247.981295 C107.141007,248.736691 105.021583,249.858993 102.781295,250.381295 C101.293196,250.6944 99.7886605,250.923539 98.2748201,251.067626 L87.9971223,252.241727 C85.9071649,252.521254 83.803103,252.682661 81.694964,252.72518 C77.2057554,252.72518 72.7899281,251.663309 68.4302158,250.601439 C67.9666989,250.520115 67.525484,250.342158 67.1352518,250.079137 C66.4446043,249.535252 66.2935252,248.572662 66.1942446,247.700719 C65.7539568,243.841727 65.3683453,239.978417 65.0374101,236.110791 C64.9338129,234.854676 64.8561151,233.494964 65.542446,232.43741 C66.4057554,231.142446 68.0892086,230.736691 69.6258993,230.486331 C76.1419784,229.420355 82.7430255,228.96227 89.3438849,229.117986 C91.8517986,226.610072 95.9870504,226.597122 99.2719424,225.233094 C100.480391,224.678131 101.649962,224.042151 102.772662,223.329496 C108.648685,219.901265 115.215223,217.826457 121.994245,217.256115 C123.321801,217.2156 124.640718,217.02739 125.926619,216.694964 C128.469065,215.905036 130.78705,213.755396 133.398561,214.282014 C133.722302,213.388489 133.946763,212.192806 134.693525,211.579856 C135.064748,211.264748 135.522302,211.053237 135.863309,210.716547 C136.584173,209.98705 136.648921,208.838849 136.541007,207.820144 C136.433094,206.801439 136.191367,205.756835 136.454676,204.764029 C136.564228,204.388154 136.725483,204.029326 136.933813,203.697842 C138.228777,201.461871 140.184173,200.313669 142.78705,200.529496 Z" id="Path" fill="#464353"></path>
                      <path d="M142.78705,200.529496 C144.22446,199.981295 145.808633,200.179856 147.34964,200.38705 C152.309353,201.064748 157.342446,201.759712 161.939568,203.741007 C164.097842,204.664748 166.152518,205.899281 167.611511,207.716547 C168.906475,209.352518 169.661871,211.355396 170.378417,213.328058 L172.035971,217.869065 C172.666187,219.595683 173.305036,221.356835 173.482014,223.191367 C174,228.625899 170.283453,233.74964 165.608633,236.572662 C160.933813,239.395683 155.430216,240.401439 150.069065,241.454676 C144.707914,242.507914 139.32518,243.673381 133.985612,244.907914 C131.495139,245.554223 128.968356,246.051508 126.418705,246.397122 C120.703597,247.044604 114.729496,246.090647 109.299281,247.981295 C107.141007,248.736691 105.021583,249.858993 102.781295,250.381295 C101.293196,250.6944 99.7886605,250.923539 98.2748201,251.067626 L87.9971223,252.241727 C85.9071649,252.521254 83.803103,252.682661 81.694964,252.72518 C77.2057554,252.72518 72.7899281,251.663309 68.4302158,250.601439 C67.9666989,250.520115 67.525484,250.342158 67.1352518,250.079137 C66.4446043,249.535252 66.2935252,248.572662 66.1942446,247.700719 C65.7539568,243.841727 65.3683453,239.978417 65.0374101,236.110791 C64.9338129,234.854676 64.8561151,233.494964 65.542446,232.43741 C66.4057554,231.142446 68.0892086,230.736691 69.6258993,230.486331 C76.1419784,229.420355 82.7430255,228.96227 89.3438849,229.117986 C91.8517986,226.610072 95.9870504,226.597122 99.2719424,225.233094 C100.480391,224.678131 101.649962,224.042151 102.772662,223.329496 C108.648685,219.901265 115.215223,217.826457 121.994245,217.256115 C123.321801,217.2156 124.640718,217.02739 125.926619,216.694964 C128.469065,215.905036 130.78705,213.755396 133.398561,214.282014 C133.722302,213.388489 133.946763,212.192806 134.693525,211.579856 C135.064748,211.264748 135.522302,211.053237 135.863309,210.716547 C136.584173,209.98705 136.648921,208.838849 136.541007,207.820144 C136.433094,206.801439 136.191367,205.756835 136.454676,204.764029 C136.564228,204.388154 136.725483,204.029326 136.933813,203.697842 C138.228777,201.461871 140.184173,200.313669 142.78705,200.529496 Z" id="Path" fill="#000000" opacity="0.05"></path>
                      <path d="M57.9366906,250.476259 C55.2647482,253.571223 52.9122302,254.676259 48.7294964,254.576978 C46.1568345,254.516547 43.5870504,254.382734 41.0201439,254.17554 C39.2656613,253.985817 37.501212,253.903649 35.7366906,253.929496 C30.4100719,254.136691 25.2690647,256.57554 19.9553957,256.148201 C19.1696871,256.08636 18.392712,255.941672 17.6374101,255.716547 C16.4319599,255.384453 15.3425093,254.723908 14.4906475,253.808633 C13.4719424,252.656115 12.9841727,251.128058 12.7035971,249.617266 C11.2834532,241.873381 15.1769784,233.438849 21.9928058,229.497842 C22.8820964,228.923516 23.8930128,228.564375 24.9453237,228.448921 C25.9772063,228.444695 26.9972512,228.668751 27.9323741,229.105036 L27.9971223,229.130935 C30.7662348,230.270326 33.2811761,231.94891 35.3956835,234.069065 C35.7164912,234.43647 36.0992725,234.74474 36.5266187,234.979856 C36.9530901,235.140921 37.4045818,235.225667 37.8604317,235.230216 L43.5323741,235.588489 C44.493329,235.617167 45.4484344,235.748856 46.381295,235.981295 C47.4097024,236.340337 48.410863,236.773115 49.3769784,237.276259 C52.428777,238.640288 55.8129496,239.002878 59.1107914,239.529496 C59.4285903,239.547058 59.7318588,239.668366 59.9741007,239.87482 C60.1057174,240.038524 60.1973519,240.23066 60.2417266,240.435971 C61.1827484,243.957957 60.3196623,247.717392 57.9366906,250.476259 Z" id="Path" fill="#3F3D56"></path>
                      <path d="M27.9971223,229.135252 C25.796535,231.236541 23.8874591,233.623249 22.3208633,236.231655 C19.8069171,240.536433 18.2273437,245.322217 17.6848921,250.277698 C17.4791827,252.085459 17.4632687,253.909788 17.6374101,255.720863 C16.4319599,255.388769 15.3425093,254.728224 14.4906475,253.81295 C13.4719424,252.660432 12.9841727,251.132374 12.7035971,249.621583 C11.2834532,241.877698 15.1769784,233.443165 21.9928058,229.502158 C22.8820964,228.927833 23.8930128,228.568691 24.9453237,228.453237 C25.9772063,228.449011 26.9972512,228.673067 27.9323741,229.109353 L27.9971223,229.135252 Z" id="Path" fill="#000000" opacity="0.1"></path>
                      <path d="M137.848921,239.87482 C141.021583,239.788489 144.582734,239.628777 146.913669,241.765468 C149.136691,243.785612 149.430216,247.117986 149.576978,250.117986 L149.745324,253.601439 C149.797122,254.663309 149.840288,255.759712 149.41295,256.743885 C148.653237,258.470504 146.568345,259.303597 144.664748,259.204317 C142.761151,259.105036 141.01295,258.271942 139.273381,257.520863 C134.550674,255.486292 129.633286,253.937315 124.597122,252.897842 C124.761151,250.489209 125.034532,248.092086 125.417266,245.706475 C125.680576,244.053237 125.723741,241.286331 126.828777,239.913669 C127.998561,238.463309 129.522302,239.248921 131.110791,239.516547 C133.339648,239.856674 135.596563,239.976677 137.848921,239.87482 Z" id="Path" fill="#FBBEBE"></path>
                      <path d="M54.0043165,204.871942 C54.0043165,205.303597 53.3266187,204.871942 53.2661871,204.410072 C52.7913669,200.917986 50.0201439,198.038849 46.7913669,196.640288 C43.5625899,195.241727 39.8848921,195.168345 36.3884892,195.500719 C31.1007194,196.001439 25.1654676,198.025899 23.2316547,202.968345 C22.7741007,204.12518 22.5669065,205.376978 22.0057554,206.486331 C21.3841727,207.703597 20.3697842,208.67482 19.6964029,209.857554 C18.5352518,211.903597 18.4877698,214.411511 18.9064748,216.72518 C20.0330935,222.897842 24.2546763,228.176978 29.3697842,231.833094 C34.4848921,235.489209 40.4633094,237.673381 46.4244604,239.641727 C62.1870318,244.840347 78.3592334,248.702904 94.7697842,251.188489 C97.428777,251.589928 100.113669,251.961151 102.660432,252.815827 C104.939568,253.579856 107.071942,254.723741 109.299281,255.621583 C114.479137,257.702158 120.051799,258.444604 125.572662,259.174101 C126.513669,259.294964 127.592806,259.381295 128.28777,258.742446 C129.185612,257.909353 128.88777,256.458993 128.633094,255.263309 C127.696027,250.717023 128.48218,245.984726 130.838849,241.985612 C131.76259,240.431655 132.96259,238.838849 132.789928,237.038849 C132.582734,234.941007 130.493525,233.456115 128.41295,233.119424 C126.332374,232.782734 124.217266,233.279137 122.128058,233.551079 C121.407194,233.646043 120.621583,233.706475 119.991367,233.339568 C119.68086,233.129905 119.399305,232.880279 119.153957,232.597122 C116.201328,229.748761 111.749987,229.126549 108.129496,231.056115 C107.356835,231.48777 106.18705,230.52518 105.384173,230.16259 L96.3064748,226.053237 C85.8776978,221.335252 75.3971223,216.595683 64.3640288,213.608633 C63.483725,213.435592 62.6470768,213.087723 61.9035971,212.585612 C61.3553957,212.153957 60.9625899,211.566906 60.457554,211.08777 C59.3568345,210.047482 57.8244604,209.633094 56.5035971,208.894964 C55.1827338,208.156835 53.7021583,206.352518 54.0043165,204.871942 Z" id="Path" fill="#464353"></path>
                      <path d="M193.951079,261.284892 C192.500719,263.974101 189.686331,265.648921 186.664748,266.339568 C185.90647,266.510699 185.135626,266.620407 184.359712,266.667626 C180.539568,266.905036 176.766906,265.847482 173.084892,264.802878 L168.086331,263.395683 C167.227004,263.125181 166.346086,262.92878 165.453237,262.808633 C164.237734,262.727442 163.017136,262.769382 161.810072,262.933813 C155.902319,263.483424 149.947003,263.216161 144.11223,262.139568 C143.624097,262.086875 143.155283,261.919758 142.743885,261.651799 C142.383464,261.298489 142.063507,260.906143 141.789928,260.482014 C140.430216,258.846043 138.966906,257.892086 140.576978,255.733813 C141.505036,254.482014 143.227338,253.856115 143.948201,252.418705 C144.669065,250.981295 144.207194,248.939568 143.779856,247.454676 C143.197122,245.404317 141.280576,244.519424 140.594245,242.63741 C140.080576,241.217266 140.943885,239.568345 142.243165,238.795683 C143.542446,238.023022 145.148201,237.96259 146.646043,238.161151 C148.143885,238.359712 149.611511,238.782734 151.117986,238.899281 C155.546763,239.253237 160.07482,236.969784 164.326619,238.256115 C165.263309,238.541007 166.148201,238.994245 167.097842,239.244604 C168.949198,239.658719 170.883247,239.491393 172.635971,238.765468 C173.257554,238.532374 173.866187,238.251799 174.470504,237.97554 C175.635943,237.368818 176.877103,236.920258 178.161151,236.641727 C182.309353,235.929496 186.155396,238.8 189.284892,241.601439 C190.359167,242.493025 191.309965,243.523661 192.11223,244.666187 C192.97554,246.01295 193.433094,247.579856 193.838849,249.12518 C194.982734,253.117986 195.928058,257.615827 193.951079,261.284892 Z" id="Path" fill="#3F3D56"></path>
                      <path d="M193.951079,261.284892 C192.500719,263.974101 189.686331,265.648921 186.664748,266.339568 C187.84012,264.055969 188.369948,261.494884 188.197122,258.932374 C187.938129,254.827338 186.133813,250.959712 183.833094,247.54964 C182.417691,245.450469 180.807702,243.489288 179.02446,241.692086 C177.651799,240.310791 175.964029,239.214388 174.48777,237.94964 C175.653209,237.342919 176.894369,236.894359 178.178417,236.615827 C182.326619,235.903597 186.172662,238.774101 189.302158,241.57554 C190.376433,242.467126 191.327231,243.497762 192.129496,244.640288 C192.992806,245.98705 193.45036,247.553957 193.856115,249.099281 C194.982734,253.117986 195.928058,257.615827 193.951079,261.284892 Z" id="Path" fill="#000000" opacity="0.1"></path>
                      <path d="M35.4431655,128.119424 C35.02268,128.559597 34.696584,129.081057 34.4848921,129.651799 C30.9956689,137.515387 28.9347173,145.937517 28.3985612,154.523741 C28.4079484,154.942402 28.3114385,155.356653 28.1179856,155.728058 C27.9272188,155.975175 27.7148731,156.204855 27.4834532,156.414388 C27.0586927,156.917857 26.8613062,157.574703 26.9381761,158.228915 C27.015046,158.883127 27.3593132,159.476329 27.8892086,159.867626 C28.6014388,158.52518 30.3064748,158.089209 31.8215827,157.972662 C39.0776978,157.398561 46.1654676,160.774101 53.4431655,160.519424 C52.9294964,158.745324 52.1913669,157.040288 51.7726619,155.244604 C49.9208633,147.271942 54.5395683,138.591367 51.7079137,130.91223 C51.142446,129.37554 50.1971223,127.864748 48.7079137,127.191367 C48.0913174,126.942308 47.4460398,126.771201 46.7870504,126.682014 C44.9482014,126.34964 41.2877698,124.929496 39.5093525,125.499281 C38.8532374,125.710791 38.5942446,126.328058 38.0503597,126.699281 C37.2258993,127.230216 36.1294964,127.42446 35.4431655,128.119424 Z" id="Path" fill="#00B3FF"></path>
                      <rect id="Rectangle" fill="#3F3D56" x="50.7496403" y="143.831655" width="96.2589928" height="61.294964" rx="7.97"></rect>
                      <circle id="Oval" fill="#FFFFFF" cx="98.6633094" cy="174.479137" r="2.58992806"></circle>
                      <path d="M63.5784173,51.8201439 C62.1280576,52.8690647 61.1352518,54.3755396 60.1251799,55.8215827 C58.2647482,58.4935252 56.1582734,61.1611511 53.1841727,62.6503597 C52.057554,63.2158273 50.771223,63.6431655 50.0244604,64.6273381 C49.5812225,65.2929271 49.2935329,66.049772 49.1827338,66.8417266 C48.6129997,69.6264125 48.3151976,72.45987 48.2935252,75.3021583 C48.2935252,76.7179856 48.3539568,78.1769784 48.9798561,79.4633094 C49.571223,80.6719424 50.6374101,81.694964 50.857554,83.0115108 C51.0258993,84.0388489 50.6460432,85.0618705 50.5122302,86.0935252 C50.3784173,87.1251799 50.6115108,88.3467626 51.5654676,88.8388489 C52.0794738,89.0322004 52.6162796,89.1584223 53.1625899,89.2143885 C56.0330935,89.8532374 56.9956835,93.2201439 57.4316547,96.0043165 C58.4071942,95.9482014 58.847482,94.8302158 59.0503597,93.9194245 L62.0417266,80.6201439 C62.3654676,79.1784173 62.905036,77.5079137 64.342446,77.0028777 C65.305036,76.6705036 66.3582734,76.981295 67.3640288,77.0676259 C71.3136691,77.3913669 74.6546763,74.3395683 78.5179856,73.4978417 C79.7546074,73.2482697 81.0189033,73.1640801 82.2776978,73.247482 C85.3251799,73.3985612 88.8690647,74.6503597 89.5165468,77.494964 C89.6244604,77.9568345 89.6892086,78.5093525 90.1208633,78.7381295 C90.552518,78.9669065 91.0057554,78.7726619 91.4589928,78.7381295 C93.3928058,78.5438849 94.5323741,80.7194245 95.0892086,82.4978417 L97.1179856,88.9726619 C97.4201439,89.952518 97.9294964,91.105036 98.9913669,91.2302158 C99.971223,91.3510791 100.804317,90.4230216 100.951079,89.5035971 C101.097842,88.5841727 100.778417,87.6302158 100.566906,86.7064748 C99.6129496,82.4546763 101.071942,78.1035971 101.961151,73.8431655 C102.85036,69.5827338 103.010072,64.6877698 100.027338,61.4071942 C98.9438849,60.2201439 97.5194245,59.3352518 96.5093525,58.0834532 C95.5683453,56.9093525 95.0374101,55.4676259 94.0618705,54.3151079 C91.3640288,51.1338129 84.4446043,48.6776978 80.2014388,48.2719424 C75.3539568,47.7453237 67.4978417,48.9755396 63.5784173,51.8201439 Z" id="Path" fill="#3F3D56"></path>
                      <g id="Group" opacity="0.1" transform="translate(47.913669, 67.143885)" fill="#000000">
                          <path d="M51.094964,21.0647482 C50.0330935,20.9352518 49.523741,19.7697842 49.2215827,18.8071942 C48.5453237,16.6460432 47.8690647,14.4877698 47.1928058,12.3323741 C46.6359712,10.5496403 45.4964029,8.37410072 43.5625899,8.57266187 C43.1093525,8.62014388 42.6215827,8.7971223 42.2244604,8.57266187 C41.8273381,8.34820144 41.7280576,7.79136691 41.6201439,7.3294964 C40.9726619,4.48057554 37.428777,3.23309353 34.381295,3.08201439 C33.1226904,2.99936195 31.8586812,3.08208126 30.6215827,3.32805755 C26.7582734,4.19136691 23.4172662,7.21294964 19.4676259,6.89784173 C18.4489209,6.81582734 17.3956835,6.50503597 16.4460432,6.83741007 C14.9913669,7.3381295 14.4690647,8.99568345 14.1453237,10.4546763 L11.1539568,23.7496403 C10.9510791,24.6647482 10.5107914,25.7827338 9.5352518,25.8345324 C9.10359712,23.0546763 8.13669065,19.6877698 5.26618705,19.0489209 C4.72058331,18.9887995 4.18429009,18.8626981 3.66906475,18.6733813 C3.29352508,18.4682536 2.99952757,18.1407434 2.83597122,17.7453237 C2.75827338,18.1467626 2.6676259,18.5482014 2.61582734,18.9496403 C2.48633094,19.9769784 2.71510791,21.2028777 3.66906475,21.694964 C4.18307094,21.8883155 4.71987677,22.0145374 5.26618705,22.0705036 C8.13669065,22.7093525 9.09928058,26.076259 9.5352518,28.8604317 C10.5107914,28.8043165 10.9510791,27.6863309 11.1539568,26.7755396 L14.1453237,13.476259 C14.4690647,12.0345324 15.0086331,10.3640288 16.4460432,9.85899281 C17.4086331,9.52661871 18.4618705,9.83741007 19.4676259,9.92374101 C23.4172662,10.247482 26.7582734,7.19568345 30.6215827,6.35395683 C31.8582045,6.10438484 33.1225004,6.02019521 34.381295,6.10359712 C37.428777,6.25467626 40.9726619,7.50647482 41.6201439,10.3510791 C41.7280576,10.8129496 41.7928058,11.3654676 42.2244604,11.5942446 C42.6561151,11.8230216 43.1093525,11.628777 43.5625899,11.5942446 C45.4964029,11.4 46.6359712,13.5755396 47.1928058,15.3539568 C47.8661871,17.5151079 48.542446,19.6733813 49.2215827,21.828777 C49.523741,22.8086331 50.0330935,23.9611511 51.094964,24.0863309 C52.0748201,24.2071942 52.9079137,23.2791367 53.0546763,22.3597122 C53.1210054,21.5860708 53.0329704,20.8069604 52.7956835,20.0676259 C52.4808512,20.7117419 51.8107973,21.1045907 51.094964,21.0647482 Z" id="Path"></path>
                          <path d="M2.94820144,12.8460432 C2.72805755,11.5294964 1.65323741,10.5064748 1.0705036,9.29784173 C0.695848563,8.48264375 0.479074426,7.60382968 0.431654676,6.70791367 C0.431654676,7.19136691 0.388489209,7.67482014 0.384172662,8.16258993 C0.384172662,9.57841727 0.444604317,11.0374101 1.0705036,12.323741 C1.54964029,13.3035971 2.33956835,14.1669065 2.73669065,15.1640288 C2.94607434,14.4103842 3.01772626,13.6251375 2.94820144,12.8460432 Z" id="Path"></path>
                          <path d="M54.0647482,3.66043165 C53.2791367,7.42446043 52.0532374,11.257554 52.4330935,15.0302158 C52.6791367,12.2460432 53.4906475,9.44460432 54.0647482,6.68201439 C54.5436174,4.58414115 54.7123179,2.42739245 54.5654676,0.28057554 C54.4717415,1.41682713 54.3044846,2.54581121 54.0647482,3.66043165 Z" id="Path"></path>
                      </g>
                      <g id="Group" opacity="0.8" transform="translate(154.000000, 0.000000)">
                          <path d="M13.3985612,72.7294964 L283.208633,72.7294964" id="Path" stroke="#3F3D56" stroke-width="3"></path>
                          <path d="M37.3683453,72.7251799 C37.3683453,72.7251799 50.2705036,74.5165468 43.5884892,60.6733813 C36.9064748,46.8302158 61.7179856,49.4503597 61.7179856,49.4503597" id="Path" stroke="#3F3D56" stroke-width="3"></path>
                          <path d="M123.297842,72.7251799 C123.297842,72.7251799 136.2,70.9381295 129.517986,84.781295 C122.835971,98.6244604 147.647482,96.0043165 147.647482,96.0043165" id="Path" stroke="#3F3D56" stroke-width="3"></path>
                          <path d="M247.023022,72.7251799 C247.023022,72.7251799 234.116547,70.9381295 240.802878,84.781295 C247.489209,98.6244604 222.673381,96.0043165 222.673381,96.0043165" id="Path" stroke="#3F3D56" stroke-width="3"></path>
                          <path d="M222.673381,96 L151.480576,96" id="Path" stroke="#3F3D56" stroke-width="3"></path>
                          <circle class="svg-circle svg-circle-1" id="Oval" fill="#00B3FF" cx="13.3985612" cy="72.7294964" r="7.87769784"></circle>
                          <circle class="svg-circle svg-circle-2" id="Oval" fill="#3ACC6C" cx="61.8517986" cy="49.3381295" r="7.87769784"></circle>
                          <circle class="svg-circle svg-circle-3" id="Oval" fill="#00B3FF" cx="61.8517986" cy="72.7294964" r="7.87769784"></circle>
                          <circle class="svg-circle svg-circle-4" id="Oval" fill="#00B3FF" cx="93.1208633" cy="72.7294964" r="7.87769784"></circle>
                          <circle class="svg-circle svg-circle-5" id="Oval" fill="#FF0066" cx="147.776978" cy="95.8834532" r="7.87769784"></circle>
                          <circle class="svg-circle svg-circle-6" id="Oval" fill="#FF0066" cx="189.077698" cy="95.8834532" r="7.87769784"></circle>
                          <circle class="svg-circle svg-circle-7" id="Oval" fill="#00B3FF" cx="186.923741" cy="72.7294964" r="7.87769784"></circle>
                          <circle class="svg-circle svg-circle-8" id="Oval" fill="#00B3FF" cx="281.214388" cy="72.7294964" r="7.87769784"></circle>
                          <circle class="svg-circle svg-circle-9" id="Oval" fill="#00B3FF" cx="242.641727" cy="72.7294964" r="7.87769784"></circle>
                          <rect class="svg-circle svg-circle-1" id="Rectangle" fill="#00B3FF" x="0.164028777" y="0.284892086" width="26.4302158" height="18.2158273"></rect>
                          <rect class="svg-circle svg-circle-2" id="Rectangle" fill="#3ACC6C" x="48.7338129" y="0.284892086" width="26.4302158" height="18.2158273"></rect>
                          <rect class="svg-circle svg-circle-5" id="Rectangle" fill="#FF0066" x="134.451799" y="0.284892086" width="26.4302158" height="18.2158273"></rect>
                      </g>
                      <g id="Group" opacity="0.1" transform="translate(0.000000, 92.611511)" fill="#00B3FF">
                          <path d="M37.2733813,4.04028777 C37.2733813,4.04028777 4.99856115,-9.53093525 0.768345324,14.9568345 C0.768345324,14.9568345 -1.43741007,18.7726619 1.63165468,21.923741 C1.63165468,21.923741 2.29208633,20.2316547 5.40863309,21.9798561 C6.52177368,22.5954918 7.70417677,23.0765676 8.93093525,23.4129496 C10.5876694,23.8699528 12.3480643,23.7760247 13.9467626,23.1453237 C13.9467626,23.1453237 24.5611511,22.571223 33.4877698,8.68489209 C33.4877698,8.68489209 37.3165468,6.31942446 37.5064748,5.43021583 L31.1093525,5.8618705 C31.1093525,5.8618705 31.6014388,10.5453237 28.9510791,13.3553957 C28.9510791,13.3553957 31.2992806,6.08633094 30.1726619,5.88345324 C29.9438849,5.84028777 26.7928058,6.25467626 26.7928058,6.25467626 C26.7928058,6.25467626 27.6086331,14.4 23.3395683,18.6129496 C23.3395683,18.6129496 27.3021583,10.3294964 25.5798561,6.40143885 L20.857554,7.31223022 C20.857554,7.31223022 22.152518,15.8805755 17.4820144,20.8618705 C17.4820144,20.8618705 21.323741,12.0561151 19.8388489,7.58417266 L15.3194245,9.10359712 C15.3194245,9.10359712 16.4071942,17.4820144 12.5007194,21.6215827 C12.5007194,21.6215827 15.9107914,10.9985612 14.305036,9.5352518 C14.305036,9.5352518 10.2388489,11.1841727 9.37122302,12.1251799 C9.37122302,12.1251799 10.0143885,18.1683453 7.5323741,20.3482014 C7.5323741,20.3482014 9.05611511,13.0100719 8.30071942,12.7079137 C8.30071942,12.7079137 3.57841727,16.2647482 2.13669065,19.3338129 C2.13669065,19.3338129 3.9323741,14.6460432 7.70935252,11.9956835 C7.70935252,11.9956835 4.53669065,11.4604317 2.09784173,12.7856115 C2.09784173,12.7856115 3.7294964,9.67338129 8.85323741,11.1496403 C8.85323741,11.1496403 12.647482,8.52086331 13.4071942,8.55971223 C13.4071942,8.55971223 8.55971223,6.40143885 5.05899281,6.66906475 C5.05899281,6.66906475 8.81438849,4.51079137 14.5899281,8.11510791 L19.1007194,6.48776978 C19.1007194,6.48776978 12.8417266,3.28057554 9.70791367,3.29352518 C9.70791367,3.29352518 13.8776978,1.67913669 20.2705036,6.16834532 L24.8892086,5.22733813 C24.8892086,5.22733813 19.7093525,2.05467626 16.2172662,1.31654676 C16.2172662,1.31654676 20.4043165,0.651798561 26.2230216,5.00719424 L29.3784173,4.74388489 C29.3784173,4.74388489 25.5582734,2.49064748 24.4014388,1.94244604 C23.2446043,1.3942446 23.2964029,1.04028777 23.2964029,1.04028777 C26.0416435,1.51049254 28.6027209,2.73275702 30.694964,4.57122302 C30.694964,4.57122302 37.247482,4.44172662 37.2733813,4.04028777 Z" id="Path"></path>
                      </g>
                      <g id="Group" opacity="0.1" transform="translate(4.316547, 54.625899)" fill="#00B3FF">
                          <path d="M31.7654676,17.6978417 C31.7654676,17.6978417 20.3352518,-8.74964029 3.8676259,3.37985612 C3.8676259,3.37985612 0.388489209,4.38992806 0.414388489,7.99856115 C0.414388489,7.99856115 1.76978417,7.36834532 2.62877698,10.1870504 C2.94374983,11.1868867 3.37856557,12.1449307 3.92374101,13.0402878 C4.644279,14.2572102 5.74343269,15.2047565 7.05323741,15.7381295 C7.05323741,15.7381295 13.6877698,21.4446043 26.9093525,18.2805755 C26.9093525,18.2805755 30.5352518,19.0532374 31.152518,18.6388489 L27.1122302,15.2417266 C27.1122302,15.2417266 24.7338129,18.3064748 21.5482014,18.4532374 C21.5482014,18.4532374 27.0863309,15.4748201 26.5338129,14.7107914 C26.4215827,14.5553957 24.3107914,13.0100719 24.3107914,13.0100719 C24.3107914,13.0100719 20.1582734,18.3107914 15.2460432,18.3928058 C15.2460432,18.3928058 22.3208633,15.7251799 23.5338129,12.4143885 L20.2100719,10.2561151 C20.2100719,10.2561151 16.018705,16.0877698 10.4071942,16.3899281 C10.4071942,16.3899281 17.7064748,13.3467626 19.3726619,9.84172662 L15.8201439,8.17122302 C15.8201439,8.17122302 11.6935252,13.7827338 7.02733813,13.9942446 C7.02733813,13.9942446 15.1079137,9.62589928 14.9827338,7.84316547 C14.9827338,7.84316547 11.628777,6.50503597 10.5625899,6.58273381 C10.5625899,6.58273381 7.51079137,10.5323741 4.78705036,10.4201439 C4.78705036,10.4201439 9.87625899,6.92805755 9.6,6.31942446 C9.6,6.31942446 4.76546763,5.74100719 2.16258993,6.75107914 C2.16258993,6.75107914 5.90071942,4.98992806 9.65179856,5.56834532 C9.65179856,5.56834532 8.07194245,3.44028777 5.87482014,2.84892086 C5.87482014,2.84892086 8.62014388,1.9294964 10.8215827,5.71942446 C10.8215827,5.71942446 14.5683453,6.32374101 15.0086331,6.77266187 C15.0086331,6.77266187 13.3640288,2.71942446 11.123741,0.89352518 C11.123741,0.89352518 14.5769784,1.75683453 15.9582734,7.18273381 L19.5669065,8.78417266 C19.5669065,8.78417266 17.676259,3.31079137 15.8028777,1.53669065 C15.8028777,1.53669065 19.2,2.95251799 20.4431655,9.26330935 L23.723741,11.3309353 C23.723741,11.3309353 22.4546763,6.49640288 20.8014388,4.06618705 C20.8014388,4.06618705 23.6676259,6.06043165 24.6388489,11.9611511 L26.6676259,13.6014388 C26.6676259,13.6014388 25.6791367,10.0877698 25.3035971,9.10359712 C24.9280576,8.11942446 25.1611511,7.9381295 25.1611511,7.9381295 C26.5247026,9.78903671 27.3453403,11.9833828 27.5309353,14.2748201 C27.5309353,14.2748201 31.5194245,17.9179856 31.7654676,17.6978417 Z" id="Path"></path>
                      </g>
                  </g>
                  <g id="Group-4" transform="translate(233.000000, 152.000000)">
                      <rect class="svg-code" id="Rectangle" fill-opacity="0.115545743" fill="#FFFFFF" x="0" y="0" width="71" height="8" rx="2"></rect>
                      <rect class="svg-code2" id="Rectangle-Copy-12" fill-opacity="0.226024683" fill="#FFFFFF" x="76" y="0" width="44" height="8" rx="2"></rect>
                      <rect class="svg-code3" id="Rectangle-Copy-14" fill-opacity="0.226024683" fill="#FF0066" x="125" y="0" width="25" height="8" rx="2"></rect>
                      <rect class="svg-code3" id="Rectangle-Copy" fill-opacity="0.469231205" fill="#0099DA" x="0" y="19" width="36" height="8" rx="2"></rect>
                      <rect class="svg-code2" id="Rectangle-Copy-3" fill-opacity="0.301545516" fill="#FFFFFF" x="41" y="19" width="39" height="8" rx="2"></rect>
                      <rect class="svg-code4" id="Rectangle-Copy-2" fill-opacity="0.115545743" fill="#FFD800" x="85" y="19" width="65" height="8" rx="2"></rect>
                      <rect class="svg-code4" id="Rectangle-Copy-4" fill-opacity="0.352326766" fill="#FFD800" x="0" y="38" width="65" height="8" rx="2"></rect>
                      <rect class="svg-code2" id="Rectangle-Copy-6" fill-opacity="0.301545516" fill="#FFFFFF" x="0" y="57" width="49" height="8" rx="2"></rect>
                      <rect class="svg-code" id="Rectangle-Copy-7" fill-opacity="0.392804574" fill="#FF0066" x="54" y="57" width="53" height="8" rx="2"></rect>
                      <rect class="svg-code3" id="Rectangle-Copy-8" fill-opacity="0.115545743" fill="#FFD800" x="112" y="57" width="38" height="8" rx="2"></rect>
                      <rect class="svg-code" id="Rectangle-Copy-5" fill-opacity="0.115545743" fill="#FFFFFF" x="70" y="38" width="80" height="8" rx="2"></rect>
                      <rect class="svg-code4" id="Rectangle-Copy-15" fill-opacity="0.469231205" fill="#FFFFFF" x="0" y="76" width="36" height="8" rx="2"></rect>
                      <rect class="svg-code" id="Rectangle-Copy-10" fill-opacity="0.301545516" fill="#0099DA" x="41" y="76" width="39" height="8" rx="2"></rect>
                      <rect class="svg-code" id="Rectangle-Copy-13" fill-opacity="0.115545743" fill="#FFFFFF" x="85" y="76" width="65" height="8" rx="2"></rect>
                      <rect class="svg-code" id="Rectangle-Copy-20" fill-opacity="0.115545743" fill="#FF0066" x="0" y="95" width="71" height="8" rx="2"></rect>
                      <rect class="svg-code3" id="Rectangle-Copy-21" fill-opacity="0.226024683" fill="#FFFFFF" x="76" y="95" width="44" height="8" rx="2"></rect>
                      <rect class="svg-code2" id="Rectangle-Copy-22" fill-opacity="0.226024683" fill="#0099DA" x="125" y="95" width="25" height="8" rx="2"></rect>
                  </g>
              </g>
          </g>
      </g>
  </g>
</svg>
